<mxfile host="app.diagrams.net" modified="2023-10-10T23:12:29.504Z" agent="Mozilla/5.0 (Windows NT 10.0; Win64; x64) AppleWebKit/537.36 (KHTML, like Gecko) Chrome/117.0.0.0 Safari/537.36" etag="6TpFtBZ88qHEZh7dOnWc" version="22.0.0" type="device">
  <diagram name="PÃ¡gina-1" id="MQ0K4qcrh7b37kgT6Sq1">
    <mxGraphModel dx="1750" dy="903" grid="1" gridSize="10" guides="1" tooltips="1" connect="1" arrows="1" fold="1" page="1" pageScale="1" pageWidth="827" pageHeight="1169" math="0" shadow="0">
      <root>
        <mxCell id="0" />
        <mxCell id="1" parent="0" />
        <mxCell id="5G8G3ZdIg2ZApKxB91yQ-1" value="&lt;p style=&quot;margin:0px;margin-top:4px;text-align:center;&quot;&gt;&lt;b&gt;Carrera&lt;/b&gt;&lt;/p&gt;&lt;hr size=&quot;1&quot;/&gt;&lt;p style=&quot;margin:0 0 0 4px;line-height:1.6;&quot;&gt;+ Carrera(String): &lt;br/&gt;# Carrera(): &lt;/p&gt;&lt;hr size=&quot;1&quot;/&gt;&lt;p style=&quot;margin:0 0 0 4px;line-height:1.6;&quot;&gt;- nombre: String&lt;br/&gt;- id: int&lt;br/&gt;- matriculaciones: Set&amp;lt;Matriculacion&amp;gt;&lt;/p&gt;&lt;hr size=&quot;1&quot;/&gt;&lt;p style=&quot;margin:0 0 0 4px;line-height:1.6;&quot;&gt;+ addMatriculacion(Matriculacion): void&lt;br/&gt;+ setNombre(String): void&lt;br/&gt;+ removeMatriculacion(Matriculacion): void&lt;br/&gt;+ getMatriculaciones(): Set&amp;lt;Matriculacion&amp;gt;&lt;br/&gt;+ getNombre(): String&lt;br/&gt;+ getId(): int&lt;/p&gt;" style="verticalAlign=top;align=left;overflow=fill;fontSize=14;fontFamily=Helvetica;html=1;rounded=0;shadow=0;comic=0;labelBackgroundColor=none;strokeWidth=1;" vertex="1" parent="1">
          <mxGeometry x="380" y="1598" width="302" height="312" as="geometry" />
        </mxCell>
        <mxCell id="5G8G3ZdIg2ZApKxB91yQ-2" value="&lt;p style=&quot;margin:0px;margin-top:4px;text-align:center;&quot;&gt;&lt;b&gt;CarreraConInscriptosYEgresadosDTO&lt;/b&gt;&lt;/p&gt;&lt;hr size=&quot;1&quot;/&gt;&lt;p style=&quot;margin:0 0 0 4px;line-height:1.6;&quot;&gt;+ CarreraConInscriptosYEgresadosDTO(String): &lt;/p&gt;&lt;hr size=&quot;1&quot;/&gt;&lt;p style=&quot;margin:0 0 0 4px;line-height:1.6;&quot;&gt;- nombre: String&lt;br/&gt;- estudiantesGraduadosPorAnio: HashMap&amp;lt;Integer, List&amp;lt;EstudianteDTO&amp;gt;&amp;gt;&lt;br/&gt;- estudiantesInscriptosPorAnio: HashMap&amp;lt;Integer, List&amp;lt;EstudianteDTO&amp;gt;&amp;gt;&lt;/p&gt;&lt;hr size=&quot;1&quot;/&gt;&lt;p style=&quot;margin:0 0 0 4px;line-height:1.6;&quot;&gt;+ getEstudiantesInscriptosPorAnio(): HashMap&amp;lt;Integer, List&amp;lt;EstudianteDTO&amp;gt;&amp;gt;&lt;br/&gt;+ agregarGraduadosEnAnio(List&amp;lt;EstudianteDTO&amp;gt;, Integer): void&lt;br/&gt;+ agregarInscriptosEnAnio(List&amp;lt;EstudianteDTO&amp;gt;, Integer): void&lt;br/&gt;+ getEstudiantesGraduadosPorAnio(): HashMap&amp;lt;Integer, List&amp;lt;EstudianteDTO&amp;gt;&amp;gt;&lt;br/&gt;+ toString(): String&lt;br/&gt;+ getNombre(): String&lt;/p&gt;" style="verticalAlign=top;align=left;overflow=fill;fontSize=14;fontFamily=Helvetica;html=1;rounded=0;shadow=0;comic=0;labelBackgroundColor=none;strokeWidth=1;" vertex="1" parent="1">
          <mxGeometry x="727" y="1598" width="536" height="292" as="geometry" />
        </mxCell>
        <mxCell id="5G8G3ZdIg2ZApKxB91yQ-3" value="&lt;p style=&quot;margin:0px;margin-top:4px;text-align:center;&quot;&gt;&lt;b&gt;Estudiante&lt;/b&gt;&lt;/p&gt;&lt;hr size=&quot;1&quot;/&gt;&lt;p style=&quot;margin:0 0 0 4px;line-height:1.6;&quot;&gt;# Estudiante(): &lt;br/&gt;+ Estudiante(int, String, String, int, String, String, String): &lt;/p&gt;&lt;hr size=&quot;1&quot;/&gt;&lt;p style=&quot;margin:0 0 0 4px;line-height:1.6;&quot;&gt;- numeroLibreta: String&lt;br/&gt;- dni: int&lt;br/&gt;- genero: String&lt;br/&gt;- edad: int&lt;br/&gt;- apellido: String&lt;br/&gt;- matriculaciones: Set&amp;lt;Matriculacion&amp;gt;&lt;br/&gt;- nombres: String&lt;br/&gt;- ciudadResidencia: String&lt;/p&gt;&lt;hr size=&quot;1&quot;/&gt;&lt;p style=&quot;margin:0 0 0 4px;line-height:1.6;&quot;&gt;+ getNumeroLibreta(): String&lt;br/&gt;+ setGenero(String): void&lt;br/&gt;+ getDni(): int&lt;br/&gt;+ setEdad(int): void&lt;br/&gt;+ setCiudadResidencia(String): void&lt;br/&gt;+ getCiudadResidencia(): String&lt;br/&gt;+ setNumeroLibreta(String): void&lt;br/&gt;+ setApellido(String): void&lt;br/&gt;+ getApellido(): String&lt;br/&gt;+ getEdad(): int&lt;br/&gt;+ getGenero(): String&lt;br/&gt;+ removeMatriculacion(Matriculacion): void&lt;br/&gt;+ getNombres(): String&lt;br/&gt;+ getMatriculaciones(): Set&amp;lt;Matriculacion&amp;gt;&lt;br/&gt;+ setNombres(String): void&lt;br/&gt;+ addMatriculacion(Matriculacion): void&lt;/p&gt;" style="verticalAlign=top;align=left;overflow=fill;fontSize=14;fontFamily=Helvetica;html=1;rounded=0;shadow=0;comic=0;labelBackgroundColor=none;strokeWidth=1;" vertex="1" parent="1">
          <mxGeometry x="380" y="410" width="398" height="669" as="geometry" />
        </mxCell>
        <mxCell id="5G8G3ZdIg2ZApKxB91yQ-4" value="&lt;p style=&quot;margin:0px;margin-top:4px;text-align:center;&quot;&gt;&lt;b&gt;EstudianteDTO&lt;/b&gt;&lt;/p&gt;&lt;hr size=&quot;1&quot;/&gt;&lt;p style=&quot;margin:0 0 0 4px;line-height:1.6;&quot;&gt;+ EstudianteDTO(int, String, String, int, String, String, String): &lt;/p&gt;&lt;hr size=&quot;1&quot;/&gt;&lt;p style=&quot;margin:0 0 0 4px;line-height:1.6;&quot;&gt;- ciudadResidencia: String&lt;br/&gt;- apellido: String&lt;br/&gt;- genero: String&lt;br/&gt;- dni: int&lt;br/&gt;- numeroLibreta: String&lt;br/&gt;- nombres: String&lt;br/&gt;- edad: int&lt;/p&gt;&lt;hr size=&quot;1&quot;/&gt;&lt;p style=&quot;margin:0 0 0 4px;line-height:1.6;&quot;&gt;+ getNumeroLibreta(): String&lt;br/&gt;+ getDni(): int&lt;br/&gt;+ getCiudadResidencia(): String&lt;br/&gt;+ toString(): String&lt;br/&gt;+ getNombres(): String&lt;br/&gt;+ getApellido(): String&lt;br/&gt;+ getEdad(): int&lt;br/&gt;+ getGenero(): String&lt;/p&gt;" style="verticalAlign=top;align=left;overflow=fill;fontSize=14;fontFamily=Helvetica;html=1;rounded=0;shadow=0;comic=0;labelBackgroundColor=none;strokeWidth=1;" vertex="1" parent="1">
          <mxGeometry x="380" y="1124" width="405" height="429" as="geometry" />
        </mxCell>
        <mxCell id="5G8G3ZdIg2ZApKxB91yQ-5" value="&lt;p style=&quot;margin:0px;margin-top:4px;text-align:center;&quot;&gt;&lt;b&gt;FabricaRepositorios&lt;/b&gt;&lt;/p&gt;&lt;hr size=&quot;1&quot;/&gt;&lt;p style=&quot;margin:0 0 0 4px;line-height:1.6;&quot;&gt;+ FabricaRepositorios(): &lt;/p&gt;&lt;hr size=&quot;1&quot;/&gt;&lt;p style=&quot;margin:0 0 0 4px;line-height:1.6;&quot;&gt;+ MYSQL_JPA: int&lt;/p&gt;&lt;hr size=&quot;1&quot;/&gt;&lt;p style=&quot;margin:0 0 0 4px;line-height:1.6;&quot;&gt;+ getFactory(int): FabricaRepositorios?&lt;br/&gt;+ getRepoCarrera(): RepoCarrera&lt;br/&gt;+ getRepoEstudiante(): RepoEstudiante&lt;br/&gt;+ getRepoMatriculacion(): RepoMatriculacion&lt;br/&gt;+ closeConnection(): void&lt;/p&gt;" style="verticalAlign=top;align=left;overflow=fill;fontSize=14;fontFamily=Helvetica;html=1;rounded=0;shadow=0;comic=0;labelBackgroundColor=none;strokeWidth=1;" vertex="1" parent="1">
          <mxGeometry x="1243" y="410" width="311" height="220" as="geometry" />
        </mxCell>
        <mxCell id="5G8G3ZdIg2ZApKxB91yQ-6" value="&lt;p style=&quot;margin:0px;margin-top:4px;text-align:center;&quot;&gt;&lt;b&gt;FabricaRepositoriosMySQL&lt;/b&gt;&lt;/p&gt;&lt;hr size=&quot;1&quot;/&gt;&lt;p style=&quot;margin:0 0 0 4px;line-height:1.6;&quot;&gt;- FabricaRepositoriosMySQL(): &lt;/p&gt;&lt;hr size=&quot;1&quot;/&gt;&lt;p style=&quot;margin:0 0 0 4px;line-height:1.6;&quot;&gt;- INSTANCE: FabricaRepositoriosMySQL&lt;br/&gt;- entityManagerFactory: EntityManagerFactory&lt;/p&gt;&lt;hr size=&quot;1&quot;/&gt;&lt;p style=&quot;margin:0 0 0 4px;line-height:1.6;&quot;&gt;+ getInstance(): FabricaRepositoriosMySQL&lt;br/&gt;+ getRepoEstudiante(): RepoEstudiante&lt;br/&gt;+ getRepoMatriculacion(): RepoMatriculacion&lt;br/&gt;+ closeConnection(): void&lt;br/&gt;+ getRepoCarrera(): RepoCarrera&lt;/p&gt;" style="verticalAlign=top;align=left;overflow=fill;fontSize=14;fontFamily=Helvetica;html=1;rounded=0;shadow=0;comic=0;labelBackgroundColor=none;strokeWidth=1;" vertex="1" parent="1">
          <mxGeometry x="1236" y="710" width="325" height="247" as="geometry" />
        </mxCell>
        <mxCell id="5G8G3ZdIg2ZApKxB91yQ-7" value="&lt;p style=&quot;margin:0px;margin-top:4px;text-align:center;&quot;&gt;&lt;b&gt;Matriculacion&lt;/b&gt;&lt;/p&gt;&lt;hr size=&quot;1&quot;/&gt;&lt;p style=&quot;margin:0 0 0 4px;line-height:1.6;&quot;&gt;+ Matriculacion(): &lt;br/&gt;+ Matriculacion(Estudiante, Carrera, int, Integer, int): &lt;/p&gt;&lt;hr size=&quot;1&quot;/&gt;&lt;p style=&quot;margin:0 0 0 4px;line-height:1.6;&quot;&gt;- estudiante: Estudiante&lt;br/&gt;- id: int&lt;br/&gt;- anioInscripcion: int&lt;br/&gt;- anioGraduacion: Integer&lt;br/&gt;- antiguedad: int&lt;br/&gt;- carrera: Carrera&lt;/p&gt;&lt;hr size=&quot;1&quot;/&gt;&lt;p style=&quot;margin:0 0 0 4px;line-height:1.6;&quot;&gt;+ getEstudiante(): Estudiante&lt;br/&gt;+ getAntiguedad(): int&lt;br/&gt;+ setAnioInscripcion(int): void&lt;br/&gt;+ setEstudiante(Estudiante): void&lt;br/&gt;+ setAnioGraduacion(int): void&lt;br/&gt;+ getId(): int&lt;br/&gt;+ getAnioInscripcion(): int&lt;br/&gt;+ setAntiguedad(int): void&lt;br/&gt;+ getCarrera(): Carrera&lt;br/&gt;+ setCarrera(Carrera): void&lt;br/&gt;+ getAnioGraduacion(): int&lt;/p&gt;" style="verticalAlign=top;align=left;overflow=fill;fontSize=14;fontFamily=Helvetica;html=1;rounded=0;shadow=0;comic=0;labelBackgroundColor=none;strokeWidth=1;" vertex="1" parent="1">
          <mxGeometry x="823" y="410" width="368" height="501" as="geometry" />
        </mxCell>
        <mxCell id="5G8G3ZdIg2ZApKxB91yQ-8" value="&lt;p style=&quot;margin:0px;margin-top:4px;text-align:center;&quot;&gt;&lt;i&gt;&amp;lt;&amp;lt;interface&amp;gt;&amp;gt;&lt;/i&gt;&lt;br/&gt;&lt;b&gt;RepoCarrera&lt;/b&gt;&lt;/p&gt;&lt;hr size=&quot;1&quot;/&gt;&lt;p style=&quot;margin:0 0 0 4px;line-height:1.6;&quot;&gt;+ delete(int): boolean&lt;br/&gt;+ getAll(): List&amp;lt;Carrera&amp;gt;&lt;br/&gt;+ get(int): Carrera&lt;br/&gt;+ update(Carrera): boolean&lt;br/&gt;+ insert(Carrera): void&lt;/p&gt;" style="verticalAlign=top;align=left;overflow=fill;fontSize=14;fontFamily=Helvetica;html=1;rounded=0;shadow=0;comic=0;labelBackgroundColor=none;strokeWidth=1;" vertex="1" parent="1">
          <mxGeometry x="865.5" y="1030" width="202" height="166" as="geometry" />
        </mxCell>
        <mxCell id="5G8G3ZdIg2ZApKxB91yQ-9" value="&lt;p style=&quot;margin:0px;margin-top:4px;text-align:center;&quot;&gt;&lt;b&gt;RepoCarreraMySQL&lt;/b&gt;&lt;/p&gt;&lt;hr size=&quot;1&quot;/&gt;&lt;p style=&quot;margin:0 0 0 4px;line-height:1.6;&quot;&gt;+ RepoCarreraMySQL(EntityManager): &lt;/p&gt;&lt;hr size=&quot;1&quot;/&gt;&lt;p style=&quot;margin:0 0 0 4px;line-height:1.6;&quot;&gt;- manager: EntityManager&lt;/p&gt;&lt;hr size=&quot;1&quot;/&gt;&lt;p style=&quot;margin:0 0 0 4px;line-height:1.6;&quot;&gt;+ delete(int): boolean&lt;br/&gt;+ update(Carrera): boolean&lt;br/&gt;+ get(int): Carrera&lt;br/&gt;+ getAll(): List&amp;lt;Carrera&amp;gt;&lt;br/&gt;+ insert(Carrera): void&lt;/p&gt;" style="verticalAlign=top;align=left;overflow=fill;fontSize=14;fontFamily=Helvetica;html=1;rounded=0;shadow=0;comic=0;labelBackgroundColor=none;strokeWidth=1;" vertex="1" parent="1">
          <mxGeometry x="830" y="1333" width="273" height="227" as="geometry" />
        </mxCell>
        <mxCell id="5G8G3ZdIg2ZApKxB91yQ-10" value="&lt;p style=&quot;margin:0px;margin-top:4px;text-align:center;&quot;&gt;&lt;i&gt;&amp;lt;&amp;lt;interface&amp;gt;&amp;gt;&lt;/i&gt;&lt;br/&gt;&lt;b&gt;RepoEstudiante&lt;/b&gt;&lt;/p&gt;&lt;hr size=&quot;1&quot;/&gt;&lt;p style=&quot;margin:0 0 0 4px;line-height:1.6;&quot;&gt;+ getAllByGenero(String): List&amp;lt;EstudianteDTO&amp;gt;&lt;br/&gt;+ insert(Estudiante): void&lt;br/&gt;+ getByLibreta(String): EstudianteDTO&lt;br/&gt;+ update(Estudiante): boolean&lt;br/&gt;+ delete(int): boolean&lt;br/&gt;+ getAll(): List&amp;lt;EstudianteDTO&amp;gt;&lt;/p&gt;" style="verticalAlign=top;align=left;overflow=fill;fontSize=14;fontFamily=Helvetica;html=1;rounded=0;shadow=0;comic=0;labelBackgroundColor=none;strokeWidth=1;" vertex="1" parent="1">
          <mxGeometry x="1606" y="410" width="331" height="190" as="geometry" />
        </mxCell>
        <mxCell id="5G8G3ZdIg2ZApKxB91yQ-11" value="&lt;p style=&quot;margin:0px;margin-top:4px;text-align:center;&quot;&gt;&lt;b&gt;RepoEstudianteMySQL&lt;/b&gt;&lt;/p&gt;&lt;hr size=&quot;1&quot;/&gt;&lt;p style=&quot;margin:0 0 0 4px;line-height:1.6;&quot;&gt;+ RepoEstudianteMySQL(EntityManager): &lt;/p&gt;&lt;hr size=&quot;1&quot;/&gt;&lt;p style=&quot;margin:0 0 0 4px;line-height:1.6;&quot;&gt;- manager: EntityManager&lt;/p&gt;&lt;hr size=&quot;1&quot;/&gt;&lt;p style=&quot;margin:0 0 0 4px;line-height:1.6;&quot;&gt;+ getAll(): List&amp;lt;EstudianteDTO&amp;gt;&lt;br/&gt;+ getAllByGenero(String): List&amp;lt;EstudianteDTO&amp;gt;&lt;br/&gt;+ getByLibreta(String): EstudianteDTO&lt;br/&gt;+ update(Estudiante): boolean&lt;br/&gt;+ delete(int): boolean&lt;br/&gt;+ insert(Estudiante): void&lt;/p&gt;" style="verticalAlign=top;align=left;overflow=fill;fontSize=14;fontFamily=Helvetica;html=1;rounded=0;shadow=0;comic=0;labelBackgroundColor=none;strokeWidth=1;" vertex="1" parent="1">
          <mxGeometry x="1606" y="740" width="331" height="247" as="geometry" />
        </mxCell>
        <mxCell id="5G8G3ZdIg2ZApKxB91yQ-12" value="&lt;p style=&quot;margin:0px;margin-top:4px;text-align:center;&quot;&gt;&lt;i&gt;&amp;lt;&amp;lt;interface&amp;gt;&amp;gt;&lt;/i&gt;&lt;br/&gt;&lt;b&gt;RepoMatriculacion&lt;/b&gt;&lt;/p&gt;&lt;hr size=&quot;1&quot;/&gt;&lt;p style=&quot;margin:0 0 0 4px;line-height:1.6;&quot;&gt;+ matricular(Estudiante, Carrera, int, Integer, int): void&lt;br/&gt;+ getReporte(): ReporteDTO&lt;br/&gt;+ getCarrerasConInscriptosDescendentemente(): List&amp;lt;CarreraConInscriptosYEgresadosDTO&amp;gt;&lt;br/&gt;+ getEstudiantesByCarreraAndCiudadResidencia(Carrera, String): List&amp;lt;EstudianteDTO&amp;gt;&lt;/p&gt;" style="verticalAlign=top;align=left;overflow=fill;fontSize=14;fontFamily=Helvetica;html=1;rounded=0;shadow=0;comic=0;labelBackgroundColor=none;strokeWidth=1;" vertex="1" parent="1">
          <mxGeometry x="1148" y="1060" width="620" height="169" as="geometry" />
        </mxCell>
        <mxCell id="5G8G3ZdIg2ZApKxB91yQ-13" value="&lt;p style=&quot;margin:0px;margin-top:4px;text-align:center;&quot;&gt;&lt;b&gt;RepoMatriculacionMySQL&lt;/b&gt;&lt;/p&gt;&lt;hr size=&quot;1&quot;/&gt;&lt;p style=&quot;margin:0 0 0 4px;line-height:1.6;&quot;&gt;+ RepoMatriculacionMySQL(EntityManager): &lt;/p&gt;&lt;hr size=&quot;1&quot;/&gt;&lt;p style=&quot;margin:0 0 0 4px;line-height:1.6;&quot;&gt;- manager: EntityManager&lt;/p&gt;&lt;hr size=&quot;1&quot;/&gt;&lt;p style=&quot;margin:0 0 0 4px;line-height:1.6;&quot;&gt;+ getCarrerasConInscriptosDescendentemente(): List&amp;lt;CarreraConInscriptosYEgresadosDTO&amp;gt;&lt;br/&gt;+ getEstudiantesByCarreraAndCiudadResidencia(Carrera, String): List&amp;lt;EstudianteDTO&amp;gt;&lt;br/&gt;+ delete(int): boolean&lt;br/&gt;+ getReporte(): ReporteDTO&lt;br/&gt;+ matricular(Estudiante, Carrera, int, Integer, int): void&lt;/p&gt;" style="verticalAlign=top;align=left;overflow=fill;fontSize=14;fontFamily=Helvetica;html=1;rounded=0;shadow=0;comic=0;labelBackgroundColor=none;strokeWidth=1;" vertex="1" parent="1">
          <mxGeometry x="1148" y="1340" width="620" height="230" as="geometry" />
        </mxCell>
        <mxCell id="5G8G3ZdIg2ZApKxB91yQ-14" value="&lt;p style=&quot;margin:0px;margin-top:4px;text-align:center;&quot;&gt;&lt;b&gt;ReporteDTO&lt;/b&gt;&lt;/p&gt;&lt;hr size=&quot;1&quot;/&gt;&lt;p style=&quot;margin:0 0 0 4px;line-height:1.6;&quot;&gt;+ ReporteDTO(): &lt;/p&gt;&lt;hr size=&quot;1&quot;/&gt;&lt;p style=&quot;margin:0 0 0 4px;line-height:1.6;&quot;&gt;- carreras: List&amp;lt;CarreraConInscriptosYEgresadosDTO&amp;gt;&lt;/p&gt;&lt;hr size=&quot;1&quot;/&gt;&lt;p style=&quot;margin:0 0 0 4px;line-height:1.6;&quot;&gt;+ toString(): String&lt;br/&gt;+ agregarCarrerasConInscriptosEnAnio(CarreraConInscriptosYEgresadosDTO): void&lt;/p&gt;" style="verticalAlign=top;align=left;overflow=fill;fontSize=14;fontFamily=Helvetica;html=1;rounded=0;shadow=0;comic=0;labelBackgroundColor=none;strokeWidth=1;" vertex="1" parent="1">
          <mxGeometry x="1308" y="1598" width="484" height="162" as="geometry" />
        </mxCell>
        <mxCell id="5G8G3ZdIg2ZApKxB91yQ-15" value="&lt;p style=&quot;margin:0px;margin-top:4px;text-align:center;&quot;&gt;&lt;b&gt;main&lt;/b&gt;&lt;/p&gt;&lt;hr size=&quot;1&quot;/&gt;&lt;p style=&quot;margin:0 0 0 4px;line-height:1.6;&quot;&gt;+ main(): &lt;/p&gt;&lt;hr size=&quot;1&quot;/&gt;&lt;p style=&quot;margin:0 0 0 4px;line-height:1.6;&quot;&gt;+ main(String[]): void&lt;/p&gt;" style="verticalAlign=top;align=left;overflow=fill;fontSize=14;fontFamily=Helvetica;html=1;rounded=0;shadow=0;comic=0;labelBackgroundColor=none;strokeWidth=1;" vertex="1" parent="1">
          <mxGeometry x="1308" y="1780" width="168" height="97" as="geometry" />
        </mxCell>
        <mxCell id="5G8G3ZdIg2ZApKxB91yQ-16" value="" style="html=1;rounded=1;edgeStyle=orthogonalEdgeStyle;dashed=0;startArrow=none;endArrow=block;endSize=12;strokeColor=#000082;exitX=0.500;exitY=0.000;exitDx=0;exitDy=0;entryX=0.500;entryY=1.000;entryDx=0;entryDy=0;" edge="1" parent="1" source="5G8G3ZdIg2ZApKxB91yQ-6" target="5G8G3ZdIg2ZApKxB91yQ-5">
          <mxGeometry width="50" height="50" relative="1" as="geometry">
            <Array as="points" />
          </mxGeometry>
        </mxCell>
        <mxCell id="5G8G3ZdIg2ZApKxB91yQ-17" value="" style="html=1;rounded=1;edgeStyle=orthogonalEdgeStyle;dashed=1;startArrow=none;endArrow=block;endSize=12;strokeColor=#008200;exitX=0.500;exitY=0.000;exitDx=0;exitDy=0;entryX=0.500;entryY=1.000;entryDx=0;entryDy=0;" edge="1" parent="1" source="5G8G3ZdIg2ZApKxB91yQ-9" target="5G8G3ZdIg2ZApKxB91yQ-8">
          <mxGeometry width="50" height="50" relative="1" as="geometry">
            <Array as="points" />
          </mxGeometry>
        </mxCell>
        <mxCell id="5G8G3ZdIg2ZApKxB91yQ-18" value="" style="html=1;rounded=1;edgeStyle=orthogonalEdgeStyle;dashed=1;startArrow=none;endArrow=block;endSize=12;strokeColor=#008200;exitX=0.500;exitY=0.000;exitDx=0;exitDy=0;entryX=0.500;entryY=1.000;entryDx=0;entryDy=0;" edge="1" parent="1" source="5G8G3ZdIg2ZApKxB91yQ-11" target="5G8G3ZdIg2ZApKxB91yQ-10">
          <mxGeometry width="50" height="50" relative="1" as="geometry">
            <Array as="points" />
          </mxGeometry>
        </mxCell>
        <mxCell id="5G8G3ZdIg2ZApKxB91yQ-19" value="" style="html=1;rounded=1;edgeStyle=orthogonalEdgeStyle;dashed=1;startArrow=none;endArrow=block;endSize=12;strokeColor=#008200;exitX=0.500;exitY=0.000;exitDx=0;exitDy=0;entryX=0.500;entryY=1.000;entryDx=0;entryDy=0;" edge="1" parent="1" source="5G8G3ZdIg2ZApKxB91yQ-13" target="5G8G3ZdIg2ZApKxB91yQ-12">
          <mxGeometry width="50" height="50" relative="1" as="geometry">
            <Array as="points" />
          </mxGeometry>
        </mxCell>
      </root>
    </mxGraphModel>
  </diagram>
</mxfile>
